<?xml version="1.0" standalone="no"?><!DOCTYPE svg PUBLIC "-//W3C//DTD SVG 1.1//EN" "http://www.w3.org/Graphics/SVG/1.1/DTD/svg11.dtd"><svg t="1666511922235" class="icon" viewBox="0 0 1024 1024" version="1.1" xmlns="http://www.w3.org/2000/svg" p-id="3038" xmlns:xlink="http://www.w3.org/1999/xlink" width="200" height="200"><path d="M847.644444 1024H150.755556c-48.355556-5.688889-88.177778-42.666667-93.866667-93.866667V93.866667C62.577778 45.511111 102.4 5.688889 150.755556 0h466.488888l327.111112 327.111111v605.866667c-8.533333 48.355556-48.355556 85.333333-96.711112 91.022222z m0-389.688889V327.111111h-184.888888c-25.6-2.844444-45.511111-22.755556-45.511112-45.511111V93.866667H196.266667c-25.6-2.844444-45.511111 17.066667-45.511111 42.666666v748.088889c5.688889 22.755556 22.755556 42.666667 45.511111 45.511111h605.866666c25.6-2.844444 45.511111-22.755556 45.511111-45.511111v-250.311111zM554.666667 824.888889c-17.066667 17.066667-48.355556 17.066667-65.422223 0-17.066667-17.066667-17.066667-48.355556 0-65.422222l233.244445-233.244445c17.066667-17.066667 48.355556-17.066667 65.422222 0 17.066667 17.066667 17.066667 48.355556 0 65.422222L554.666667 824.888889z m76.8-312.888889h-341.333334c-25.6 0-45.511111-19.911111-45.511111-45.511111 0-25.6 19.911111-45.511111 45.511111-45.511111h418.133334c8.533333 0 17.066667 2.844444 22.755555 8.533333-17.066667 5.688889-31.288889 14.222222-42.666666 28.444445l-56.888889 54.044444z m-341.333334 45.511111h292.977778l-93.866667 93.866667h-201.955555c-25.6 0-45.511111-19.911111-45.511111-45.511111 0-25.6 22.755556-48.355556 48.355555-48.355556z m0 139.377778h153.6l-25.6 25.6c-17.066667 17.066667-28.444444 39.822222-34.133333 65.422222h-93.866667c-25.6 0-45.511111-19.911111-45.511111-45.511111-2.844444-22.755556 19.911111-45.511111 45.511111-45.511111z m463.644445 48.355555c0 25.6-19.911111 45.511111-45.511111 45.511112h-17.066667l62.577778-62.577778v17.066666z" fill="#666666" p-id="3039"></path></svg>